<?xml version="1.0" encoding="UTF-8" standalone="no"?> <!-- Created with Vectornator for iOS (http://vectornator.io/) --><!DOCTYPE svg PUBLIC "-//W3C//DTD SVG 1.1//EN" "http://www.w3.org/Graphics/SVG/1.1/DTD/svg11.dtd">
<svg height="100%" style="fill-rule:nonzero;clip-rule:evenodd;stroke-linecap:round;stroke-linejoin:round;" version="1.1" viewBox="0 0 100 100" width="100%" xml:space="preserve" xmlns="http://www.w3.org/2000/svg" xmlns:vectornator="http://vectornator.io" xmlns:xlink="http://www.w3.org/1999/xlink">
<metadata>
<vectornator:setting key="IsTimeLapseWatermarkDisabled" value="false"/>
<vectornator:setting key="UndoHistoryDisabled" value="true"/>
<vectornator:setting key="VNDimensionsVisible" value="true"/>
<vectornator:setting key="VNSnapToGuides" value="true"/>
<vectornator:setting key="WDCMYKEnabledKey" value="false"/>
<vectornator:setting key="WDDisplayWhiteBackground" value="false"/>
<vectornator:setting key="WDDynamicGuides" value="false"/>
<vectornator:setting key="WDGuidesVisible" value="true"/>
<vectornator:setting key="WDIsolateActiveLayer" value="false"/>
<vectornator:setting key="WDOutlineMode" value="false"/>
<vectornator:setting key="WDRulersVisible" value="true"/>
<vectornator:setting key="WDSnapToEdges" value="false"/>
<vectornator:setting key="WDSnapToGrid" value="false"/>
<vectornator:setting key="WDSnapToPoints" value="false"/>
<vectornator:setting key="WDUnits" value="Points"/>
</metadata>
<defs/>
<g id="Untitled" vectornator:layerName="Untitled">
<path d="M50 1.52C23.2252 1.52 1.52 23.2252 1.52 50C1.52001 76.7748 23.2252 98.48 50 98.48C76.7748 98.48 98.48 76.7748 98.48 50C98.4855 23.2229 76.7771 1.51447 50 1.52ZM51.3 82.64L40.47 63.34L16.19 63.34L22.19 50L45.19 50C46.9628 50 48.4 48.5628 48.4 46.79C48.4 45.0172 46.9628 43.58 45.19 43.58L30.1 43.58L35.74 30.24L45.19 30.24C52.5116 30.2318 58.9673 35.0381 61.0591 42.0545C63.1509 49.0709 60.3808 56.6277 54.25 60.63L66.6 82.63L51.3 82.64ZM67 35.35C62.8787 35.3555 59.5337 32.018 59.53 27.8967C59.5263 23.7753 62.8653 20.4318 66.9867 20.43C71.108 20.4282 74.45 23.7687 74.45 27.89C74.4527 29.8676 73.6689 31.7651 72.2715 33.1644C70.8741 34.5637 68.9776 35.35 67 35.35Z" fill="#0e8000" fill-opacity="0.311771" opacity="1"/>
</g>
</svg>
