<?xml version="1.0" encoding="UTF-8" standalone="no"?> <!-- Created with Vectornator for iOS (http://vectornator.io/) --><!DOCTYPE svg PUBLIC "-//W3C//DTD SVG 1.1//EN" "http://www.w3.org/Graphics/SVG/1.1/DTD/svg11.dtd">
<svg height="100%" style="fill-rule:nonzero;clip-rule:evenodd;stroke-linecap:round;stroke-linejoin:round;" version="1.1" viewBox="0 0 390 517.827" width="100%" xml:space="preserve" xmlns="http://www.w3.org/2000/svg" xmlns:vectornator="http://vectornator.io" xmlns:xlink="http://www.w3.org/1999/xlink">
<metadata>
<vectornator:setting key="IsTimeLapseWatermarkDisabled" value="false"/>
<vectornator:setting key="UndoHistoryDisabled" value="true"/>
<vectornator:setting key="VNDimensionsVisible" value="true"/>
<vectornator:setting key="VNSnapToGuides" value="true"/>
<vectornator:setting key="WDCMYKEnabledKey" value="false"/>
<vectornator:setting key="WDDisplayWhiteBackground" value="false"/>
<vectornator:setting key="WDDynamicGuides" value="false"/>
<vectornator:setting key="WDGuidesVisible" value="true"/>
<vectornator:setting key="WDIsolateActiveLayer" value="false"/>
<vectornator:setting key="WDOutlineMode" value="false"/>
<vectornator:setting key="WDRulersVisible" value="true"/>
<vectornator:setting key="WDSnapToEdges" value="false"/>
<vectornator:setting key="WDSnapToGrid" value="false"/>
<vectornator:setting key="WDSnapToPoints" value="false"/>
<vectornator:setting key="WDUnits" value="Points"/>
</metadata>
<defs/>
<g id="Layer 1" vectornator:layerName="Layer 1">
<g opacity="1">
<path d="M113.17 428.799L294.959 428.799L294.959 517.504L113.17 517.504L113.17 428.799Z" fill="#000000" opacity="1"/>
<path d="M111.763 0.100502L295.214 0.100502L295.214 77.1315L111.763 77.1315L111.763 0.100502Z" fill="#000000" opacity="1"/>
<path d="M35.4163 246.93C35.4163 153.743 111.103 78.2 204.468 78.2C297.832 78.2 373.519 153.743 373.519 246.93C373.519 340.118 297.832 415.661 204.468 415.661C111.103 415.661 35.4163 340.118 35.4163 246.93Z" fill="#474747" opacity="1" stroke="#000000" stroke-linecap="round" stroke-linejoin="round" stroke-width="2"/>
<path d="M140.268 59.508C118.122 59.3012 127.172 59.5739 111.747 59.1329C110.355 59.0931 110.248 87.5974 100.679 99.3441C89.2923 113.322 66.8714 134.022 66.2197 133.932C63.4892 133.553 61.5694 132.913 59.7868 132.286C58.0042 131.658 56.3586 131.043 54.1764 130.715C52.1476 130.411 43.3701 142.771 35.7583 155.958C28.1466 169.144 21.7005 183.157 24.3344 186.155C25.6528 187.656 27.3873 188.33 28.7525 188.997C30.1177 189.663 31.1137 190.322 30.9551 191.792C30.1041 199.683 27.6333 211.544 25.4922 223.534C23.3511 235.523 21.5396 247.64 22.0069 256.045C22.0909 257.557 19.8815 257.854 17.3914 258.172C14.9014 258.49 12.1308 258.829 11.0925 260.426C8.26759 264.769 9.60625 275.434 11.6821 285.029C13.758 294.623 16.5712 303.148 16.6953 303.211C19.1839 304.476 23.1183 305.019 29.5021 304.445C37.6016 303.718 29.0374 327.23 57.6699 364.576C61.8408 370.016 88.0596 394.133 94.1946 400.537C113.275 420.453 112.868 446.469 112.531 447.168C112.194 447.867 130.632 449.24 139.232 449.284C140.792 449.293 141.319 437.056 142.172 434.101C143.024 431.145 255.063 433.405 261.695 433.125C265.406 432.969 266.152 443.432 266.823 447.996C267.151 450.222 294.581 448.926 294.4 448.705C294.219 448.485 295.928 431.281 297.377 424.596C299.314 415.663 325.901 384.238 339.273 374.264C340.315 373.487 347.064 374.901 350.826 375.659C358.033 377.111 383.719 329.226 383.473 322.74C383.367 319.937 375.354 316.817 376.127 314.294C389.712 269.96 378.437 205.974 376.462 201.2C375.103 197.915 379.5 189.958 383.526 187.05C387.553 184.142 354.05 130.189 350.916 130.761C348.849 131.138 343.19 137.126 339.551 131.698C337.614 128.81 315.831 109.13 307.799 100.947C302.435 95.4839 295.352 77.31 295.101 58.66C295.093 58.0397 266.829 55.3242 266.705 57.8739C266.69 58.1928 266.131 69.1954 265.493 71.9585C264.854 74.7215 153.723 72.1572 143.519 71.5365C141.573 71.4181 140.268 59.508 140.268 59.508Z" fill="#000000" opacity="1" stroke="#5e5e5e" stroke-linecap="round" stroke-linejoin="round" stroke-width="1"/>
<path d="M44.0131 247.915C44.0131 159.286 115.997 87.439 204.794 87.439C293.591 87.439 365.575 159.286 365.575 247.915C365.575 336.543 293.591 408.39 204.794 408.39C115.997 408.39 44.0131 336.543 44.0131 247.915Z" fill="#474747" opacity="1" stroke="#000000" stroke-linecap="round" stroke-linejoin="round" stroke-width="2"/>
<path d="M50.3947 247.808C50.3947 162.51 119.674 93.3618 205.135 93.3618C290.595 93.3618 359.874 162.51 359.874 247.808C359.874 333.106 290.595 402.254 205.135 402.254C119.674 402.254 50.3947 333.106 50.3947 247.808Z" fill="#474747" opacity="1" stroke="#000000" stroke-linecap="round" stroke-linejoin="round" stroke-width="2"/>
<path d="M58.0816 247.105C58.0816 166.363 123.536 100.909 204.278 100.909C285.02 100.909 350.474 166.363 350.474 247.105C350.474 327.847 285.02 393.302 204.278 393.302C123.536 393.302 58.0816 327.847 58.0816 247.105Z" fill="#000000" opacity="1"/>
<g opacity="1">
<path d="M169.627 129.925L169.236 128.131L164.838 128.131L163.84 129.925L161.135 129.925L167.167 119.784L169.888 119.784L172.462 129.925L169.627 129.925ZM165.966 126.103L168.802 126.103L168.006 122.429L165.966 126.103Z" fill="#000000" opacity="1" stroke="#ffffff" stroke-linecap="butt" stroke-linejoin="miter" stroke-width="0.4"/>
<path d="M181.663 120.096C182.332 120.383 182.927 120.821 183.401 121.377L181.664 123.225C181.386 122.822 181.02 122.485 180.595 122.24C180.202 122.002 179.752 121.873 179.292 121.87C178.751 121.867 178.221 122.015 177.76 122.297C177.288 122.577 176.902 122.979 176.638 123.46C176.362 123.955 176.22 124.514 176.226 125.08C176.219 125.551 176.327 126.017 176.544 126.437C176.745 126.83 177.05 127.161 177.426 127.391C177.809 127.625 178.25 127.745 178.7 127.74C179.163 127.728 179.619 127.619 180.038 127.42C180.519 127.207 180.961 126.915 181.347 126.558L182.721 128.221C182.11 128.802 181.401 129.27 180.626 129.603C179.902 129.93 179.119 130.105 178.324 130.116C177.451 130.134 176.587 129.92 175.823 129.5C175.104 129.101 174.512 128.506 174.115 127.786C173.702 127.03 173.494 126.18 173.507 125.319C173.497 124.299 173.772 123.297 174.303 122.426C174.83 121.561 175.579 120.854 176.473 120.379C177.398 119.882 178.433 119.627 179.482 119.638C180.234 119.635 180.975 119.791 181.663 120.096Z" fill="#000000" opacity="1" stroke="#ffffff" stroke-linecap="butt" stroke-linejoin="miter" stroke-width="0.4"/>
<path d="M193.091 121.896L187.74 121.896L187.347 123.791L192.193 123.791L191.774 125.888L186.927 125.888L186.537 127.812L192.048 127.812L191.629 129.925L183.484 129.925L185.511 119.784L193.514 119.784L193.091 121.896Z" fill="#000000" opacity="1" stroke="#ffffff" stroke-linecap="butt" stroke-linejoin="miter" stroke-width="0.4"/>
<path d="M160.983 117.891C159.871 117.89 159.176 119.091 159.732 120.055C160.286 121.017 161.675 121.018 162.231 120.056C162.358 119.837 162.424 119.588 162.424 119.334C162.424 118.537 161.78 117.891 160.983 117.891Z" fill="#000000" opacity="1" stroke="#ffffff" stroke-linecap="butt" stroke-linejoin="miter" stroke-width="0.4"/>
<path d="M159.971 122.99C159.971 121.22 158.536 119.784 156.766 119.784L154.935 119.784L153.844 122.369L156.766 122.369C157.244 122.369 157.543 122.886 157.303 123.301C157.193 123.492 156.988 123.611 156.766 123.611L152.326 123.611L151.152 126.193L155.851 126.193L157.947 129.925L160.906 129.925L158.516 125.668C159.422 125.077 159.969 124.071 159.971 122.99Z" fill="#000000" opacity="1" stroke="#ffffff" stroke-linecap="butt" stroke-linejoin="miter" stroke-width="0.4"/>
<path d="M198.069 130.147C197.243 130.147 196.459 130.047 195.716 129.846C194.976 129.648 194.373 129.392 193.907 129.078L195.021 126.968C195.524 127.291 196.06 127.536 196.63 127.702C197.199 127.868 197.77 127.951 198.342 127.951C198.882 127.951 199.301 127.872 199.601 127.715C199.901 127.559 200.051 127.343 200.051 127.069C200.051 126.831 199.915 126.645 199.643 126.512C199.373 126.378 198.953 126.235 198.383 126.083C197.738 125.912 197.2 125.739 196.771 125.564C196.345 125.388 195.977 125.12 195.668 124.758C195.359 124.398 195.204 123.923 195.204 123.332C195.204 122.62 195.399 121.996 195.789 121.461C196.179 120.924 196.734 120.507 197.456 120.212C198.178 119.917 199.023 119.769 199.992 119.769C200.705 119.769 201.37 119.843 201.988 119.991C202.606 120.138 203.139 120.351 203.586 120.627L202.559 122.72C202.169 122.474 201.739 122.285 201.268 122.156C200.798 122.029 200.316 121.966 199.822 121.966C199.262 121.966 198.823 122.056 198.504 122.236C198.186 122.416 198.027 122.649 198.027 122.935C198.027 123.181 198.164 123.372 198.439 123.505C198.715 123.637 199.143 123.779 199.722 123.931C200.368 124.092 200.903 124.26 201.327 124.433C201.749 124.603 202.113 124.864 202.417 125.214C202.721 125.567 202.874 126.028 202.874 126.598C202.874 127.301 202.676 127.921 202.282 128.456C201.888 128.993 201.327 129.409 200.601 129.705C199.872 130 199.028 130.147 198.069 130.147ZM208.957 130.147C207.952 130.147 207.075 129.962 206.328 129.59C205.583 129.219 205.009 128.701 204.605 128.037C204.202 127.373 204 126.613 204 125.757C204 124.616 204.263 123.59 204.789 122.679C205.317 121.765 206.054 121.053 206.999 120.541C207.945 120.026 209.02 119.769 210.227 119.769C211.234 119.769 212.111 119.955 212.856 120.326C213.603 120.698 214.178 121.215 214.582 121.88C214.986 122.544 215.187 123.304 215.187 124.159C215.187 125.301 214.923 126.327 214.395 127.238C213.867 128.151 213.13 128.864 212.185 129.376C211.241 129.89 210.166 130.147 208.957 130.147ZM209.199 127.809C209.827 127.809 210.378 127.652 210.853 127.338C211.328 127.025 211.694 126.604 211.95 126.076C212.208 125.55 212.337 124.969 212.337 124.332C212.337 123.657 212.13 123.117 211.718 122.713C211.303 122.31 210.725 122.108 209.985 122.108C209.357 122.108 208.806 122.265 208.331 122.578C207.856 122.892 207.49 123.313 207.234 123.841C206.978 124.367 206.85 124.948 206.85 125.585C206.85 126.26 207.057 126.8 207.47 127.203C207.882 127.607 208.459 127.809 209.199 127.809ZM220.489 130.147C219.624 130.147 218.878 130.002 218.251 129.711C217.623 129.421 217.144 129.006 216.812 128.466C216.48 127.924 216.313 127.286 216.313 126.553C216.313 126.251 216.352 125.9 216.428 125.501L217.538 119.97L220.361 119.97L219.264 125.457C219.206 125.743 219.178 126.004 219.178 126.242C219.178 127.286 219.729 127.809 220.831 127.809C221.428 127.809 221.901 127.626 222.25 127.259C222.596 126.895 222.854 126.294 223.025 125.457L224.121 119.97L226.902 119.97L225.775 125.629C225.168 128.642 223.406 130.147 220.489 130.147ZM237.105 123.149C237.105 124.06 236.863 124.847 236.378 125.508C235.894 126.168 235.215 126.65 234.341 126.954L236.036 129.947L233.088 129.947L231.604 127.297L230.179 127.297L229.653 129.947L226.831 129.947L228.827 119.97L233.088 119.97C234.361 119.97 235.35 120.25 236.053 120.811C236.754 121.371 237.105 122.15 237.105 123.149ZM234.254 123.419C234.254 123.011 234.117 122.704 233.843 122.499C233.566 122.296 233.181 122.194 232.687 122.194L231.207 122.194L230.608 125.114L232.289 125.114C232.917 125.114 233.401 124.968 233.742 124.675C234.084 124.38 234.254 123.961 234.254 123.419ZM242.822 130.147C241.814 130.147 240.93 129.964 240.169 129.597C239.41 129.231 238.827 128.715 238.419 128.051C238.01 127.387 237.806 126.622 237.806 125.757C237.806 124.616 238.069 123.59 238.595 122.679C239.123 121.765 239.862 121.053 240.812 120.541C241.762 120.026 242.845 119.769 244.061 119.769C244.983 119.769 245.801 119.933 246.513 120.261C247.226 120.59 247.757 121.054 248.108 121.651L246.071 123.277C245.586 122.498 244.855 122.108 243.877 122.108C243.241 122.108 242.679 122.258 242.193 122.558C241.708 122.858 241.331 123.27 241.062 123.796C240.792 124.324 240.657 124.916 240.657 125.571C240.657 126.246 240.875 126.788 241.311 127.197C241.749 127.605 242.342 127.809 243.092 127.809C244.042 127.809 244.855 127.424 245.531 126.653L247.198 128.293C246.656 128.948 246.024 129.421 245.303 129.711C244.581 130.002 243.754 130.147 242.822 130.147ZM257.26 122.149L252.226 122.149L251.901 123.834L256.333 123.834L255.918 125.941L251.472 125.941L251.116 127.767L256.347 127.767L255.89 129.947L247.895 129.947L249.891 119.97L257.699 119.97L257.26 122.149Z" fill="#0e8000" opacity="1" stroke="#ffffff" stroke-linecap="butt" stroke-linejoin="miter" stroke-width="0.4"/>
</g>
<path d="M64.8638 246.72C64.8638 169.718 127.286 107.296 204.287 107.296C281.288 107.296 343.71 169.718 343.71 246.72C343.71 323.721 281.288 386.143 204.287 386.143C127.286 386.143 64.8638 323.721 64.8638 246.72Z" fill="#181818" opacity="1"/>
<path d="M122.375 133.878L284.051 131.933C284.051 131.933 252.41 104.438 203.343 105.324C159.827 106.11 122.723 128.628 122.375 133.878Z" fill="#000000" opacity="1"/>
<g opacity="1">
<path d="M169.679 127.885L169.289 126.092L164.891 126.092L163.893 127.885L161.188 127.885L167.22 117.744L169.941 117.744L172.515 127.885L169.679 127.885ZM166.018 124.063L168.855 124.063L168.059 120.389L166.018 124.063Z" fill="#000000" opacity="1" stroke="#ffffff" stroke-linecap="butt" stroke-linejoin="miter" stroke-width="0.4"/>
<path d="M181.716 118.056C182.385 118.343 182.98 118.781 183.454 119.337L181.717 121.186C181.439 120.782 181.073 120.446 180.648 120.2C180.255 119.962 179.805 119.833 179.345 119.831C178.803 119.827 178.274 119.976 177.812 120.257C177.341 120.537 176.955 120.939 176.691 121.421C176.415 121.916 176.273 122.474 176.279 123.04C176.272 123.512 176.38 123.978 176.596 124.397C176.798 124.79 177.103 125.121 177.479 125.352C177.862 125.585 178.303 125.706 178.753 125.7C179.216 125.688 179.671 125.579 180.091 125.381C180.572 125.167 181.014 124.876 181.399 124.519L182.774 126.182C182.163 126.762 181.453 127.231 180.678 127.563C179.954 127.891 179.172 128.065 178.377 128.077C177.503 128.094 176.64 127.881 175.875 127.46C175.157 127.061 174.565 126.466 174.168 125.746C173.755 124.99 173.546 124.14 173.559 123.28C173.549 122.259 173.825 121.257 174.356 120.386C174.883 119.521 175.632 118.815 176.525 118.339C177.451 117.842 178.486 117.587 179.535 117.599C180.286 117.596 181.028 117.751 181.716 118.056Z" fill="#000000" opacity="1" stroke="#ffffff" stroke-linecap="butt" stroke-linejoin="miter" stroke-width="0.4"/>
<path d="M193.144 119.857L187.793 119.857L187.4 121.752L192.246 121.752L191.826 123.848L186.98 123.848L186.59 125.772L192.101 125.772L191.681 127.885L183.537 127.885L185.564 117.744L193.566 117.744L193.144 119.857Z" fill="#000000" opacity="1" stroke="#ffffff" stroke-linecap="butt" stroke-linejoin="miter" stroke-width="0.4"/>
<path d="M161.036 115.852C159.924 115.85 159.229 117.052 159.785 118.015C160.339 118.977 161.728 118.979 162.283 118.016C162.411 117.798 162.476 117.548 162.476 117.294C162.476 116.498 161.832 115.852 161.036 115.852Z" fill="#000000" opacity="1" stroke="#ffffff" stroke-linecap="butt" stroke-linejoin="miter" stroke-width="0.4"/>
<path d="M160.024 120.951C160.024 119.18 158.589 117.744 156.819 117.744L154.988 117.744L153.897 120.33L156.819 120.33C157.296 120.33 157.595 120.846 157.356 121.261C157.246 121.453 157.041 121.572 156.819 121.572L152.379 121.572L151.205 124.153L155.903 124.153L158 127.885L160.959 127.885L158.569 123.628C159.474 123.037 160.021 122.032 160.024 120.951Z" fill="#000000" opacity="1" stroke="#ffffff" stroke-linecap="butt" stroke-linejoin="miter" stroke-width="0.4"/>
<path d="M198.121 128.108C197.296 128.108 196.512 128.007 195.769 127.807C195.029 127.609 194.426 127.353 193.96 127.039L195.074 124.929C195.576 125.251 196.113 125.496 196.682 125.662C197.252 125.828 197.823 125.911 198.395 125.911C198.934 125.911 199.354 125.833 199.654 125.676C199.954 125.519 200.104 125.303 200.104 125.029C200.104 124.791 199.968 124.606 199.695 124.472C199.426 124.338 199.006 124.195 198.436 124.043C197.79 123.872 197.253 123.699 196.824 123.524C196.398 123.349 196.03 123.08 195.721 122.718C195.412 122.358 195.257 121.883 195.257 121.293C195.257 120.58 195.452 119.956 195.842 119.421C196.232 118.884 196.787 118.468 197.509 118.173C198.231 117.877 199.076 117.73 200.045 117.73C200.757 117.73 201.423 117.803 202.041 117.951C202.659 118.099 203.192 118.311 203.639 118.588L202.612 120.681C202.222 120.434 201.792 120.246 201.321 120.117C200.851 119.99 200.369 119.926 199.875 119.926C199.315 119.926 198.875 120.016 198.557 120.196C198.239 120.376 198.08 120.609 198.08 120.895C198.08 121.142 198.217 121.332 198.492 121.466C198.768 121.597 199.196 121.739 199.775 121.891C200.421 122.053 200.956 122.22 201.38 122.393C201.802 122.563 202.165 122.824 202.47 123.175C202.774 123.528 202.926 123.989 202.926 124.558C202.926 125.262 202.729 125.881 202.335 126.416C201.94 126.953 201.38 127.37 200.654 127.665C199.925 127.96 199.081 128.108 198.121 128.108ZM209.01 128.108C208.004 128.108 207.128 127.922 206.381 127.551C205.636 127.18 205.062 126.662 204.658 125.998C204.254 125.333 204.053 124.573 204.053 123.718C204.053 122.576 204.316 121.55 204.841 120.639C205.37 119.726 206.107 119.013 207.052 118.501C207.997 117.987 209.073 117.73 210.28 117.73C211.287 117.73 212.164 117.915 212.909 118.287C213.656 118.658 214.231 119.176 214.635 119.84C215.039 120.504 215.24 121.264 215.24 122.12C215.24 123.261 214.976 124.288 214.448 125.198C213.92 126.112 213.183 126.824 212.238 127.336C211.294 127.851 210.218 128.108 209.01 128.108ZM209.252 125.769C209.879 125.769 210.431 125.612 210.906 125.299C211.381 124.985 211.746 124.564 212.002 124.036C212.261 123.51 212.39 122.929 212.39 122.293C212.39 121.617 212.183 121.077 211.77 120.674C211.355 120.27 210.778 120.068 210.037 120.068C209.41 120.068 208.859 120.225 208.384 120.539C207.909 120.852 207.543 121.273 207.287 121.801C207.031 122.327 206.903 122.908 206.903 123.545C206.903 124.22 207.11 124.76 207.522 125.164C207.935 125.568 208.512 125.769 209.252 125.769ZM220.542 128.108C219.677 128.108 218.931 127.962 218.303 127.672C217.676 127.381 217.196 126.966 216.864 126.426C216.532 125.884 216.366 125.247 216.366 124.513C216.366 124.211 216.404 123.861 216.48 123.462L217.591 117.93L220.414 117.93L219.317 123.417C219.259 123.703 219.231 123.964 219.231 124.202C219.231 125.247 219.782 125.769 220.884 125.769C221.481 125.769 221.954 125.586 222.302 125.219C222.648 124.855 222.906 124.254 223.077 123.417L224.174 117.93L226.955 117.93L225.827 123.59C225.221 126.602 223.459 128.108 220.542 128.108ZM237.157 121.109C237.157 122.02 236.915 122.807 236.431 123.469C235.947 124.128 235.268 124.61 234.393 124.915L236.089 127.907L233.141 127.907L231.657 125.257L230.232 125.257L229.706 127.907L226.883 127.907L228.879 117.93L233.141 117.93C234.414 117.93 235.403 118.211 236.106 118.771C236.807 119.331 237.157 120.111 237.157 121.109ZM234.307 121.379C234.307 120.971 234.17 120.664 233.895 120.459C233.619 120.256 233.234 120.155 232.74 120.155L231.259 120.155L230.661 123.074L232.342 123.074C232.97 123.074 233.454 122.928 233.795 122.635C234.136 122.34 234.307 121.921 234.307 121.379ZM242.875 128.108C241.867 128.108 240.983 127.924 240.222 127.558C239.463 127.191 238.88 126.676 238.471 126.011C238.063 125.347 237.859 124.583 237.859 123.718C237.859 122.576 238.122 121.55 238.648 120.639C239.176 119.726 239.915 119.013 240.865 118.501C241.815 117.987 242.898 117.73 244.113 117.73C245.036 117.73 245.854 117.893 246.566 118.221C247.279 118.551 247.81 119.014 248.161 119.612L246.123 121.237C245.639 120.458 244.908 120.068 243.93 120.068C243.294 120.068 242.732 120.218 242.245 120.518C241.761 120.818 241.384 121.231 241.114 121.756C240.844 122.285 240.71 122.876 240.71 123.531C240.71 124.207 240.927 124.749 241.363 125.157C241.801 125.565 242.395 125.769 243.145 125.769C244.095 125.769 244.908 125.384 245.584 124.614L247.251 126.254C246.709 126.908 246.077 127.381 245.355 127.672C244.633 127.962 243.807 128.108 242.875 128.108ZM257.313 120.11L252.279 120.11L251.954 121.794L256.385 121.794L255.97 123.901L251.525 123.901L251.169 125.728L256.399 125.728L255.943 127.907L247.948 127.907L249.944 117.93L257.752 117.93L257.313 120.11Z" fill="#0e8000" opacity="1" stroke="#ffffff" stroke-linecap="butt" stroke-linejoin="miter" stroke-width="0.4"/>
</g>
<path d="M122.37 365.809L283.358 367.255C283.358 367.255 251.851 387.713 202.993 387.053C159.662 386.469 122.716 369.715 122.37 365.809Z" fill="#000000" opacity="1"/>
</g>
</g>
</svg>
